<mxfile host="Electron" agent="Mozilla/5.0 (Macintosh; Intel Mac OS X 10_15_7) AppleWebKit/537.36 (KHTML, like Gecko) draw.io/27.0.9 Chrome/134.0.6998.205 Electron/35.4.0 Safari/537.36" version="27.0.9">
  <diagram name="Page-1" id="00c3hi_yShrSDDQz0J8D">
    <mxGraphModel dx="1661" dy="976" grid="1" gridSize="10" guides="1" tooltips="1" connect="1" arrows="1" fold="1" page="0" pageScale="1" pageWidth="827" pageHeight="1169" math="0" shadow="0">
      <root>
        <mxCell id="0" />
        <mxCell id="1" parent="0" />
        <mxCell id="i_juG5JywFrtHg0-w_rq-5" value="" style="rounded=0;whiteSpace=wrap;html=1;fillColor=none;dashed=1;movable=1;resizable=1;rotatable=1;deletable=1;editable=1;locked=0;connectable=1;" vertex="1" parent="1">
          <mxGeometry x="50" y="160" width="680" height="610" as="geometry" />
        </mxCell>
        <mxCell id="i_juG5JywFrtHg0-w_rq-2" value="" style="rounded=0;whiteSpace=wrap;html=1;fillColor=none;dashed=1;movable=1;resizable=1;rotatable=1;deletable=1;editable=1;locked=0;connectable=1;" vertex="1" parent="1">
          <mxGeometry x="-140" y="160" width="150" height="610" as="geometry" />
        </mxCell>
        <mxCell id="i_juG5JywFrtHg0-w_rq-3" value="&lt;font style=&quot;font-size: 24px;&quot;&gt;Sources&lt;/font&gt;" style="rounded=0;whiteSpace=wrap;html=1;fillColor=default;strokeColor=none;" vertex="1" parent="1">
          <mxGeometry x="-120" y="147" width="110" height="25" as="geometry" />
        </mxCell>
        <mxCell id="i_juG5JywFrtHg0-w_rq-6" value="&lt;font style=&quot;font-size: 24px;&quot;&gt;Data Warehouse&lt;/font&gt;" style="rounded=0;whiteSpace=wrap;html=1;fillColor=default;strokeColor=none;" vertex="1" parent="1">
          <mxGeometry x="265" y="147" width="250" height="25" as="geometry" />
        </mxCell>
        <mxCell id="Be87at6GzKaMUq3B2Rep-4" value="" style="rounded=0;whiteSpace=wrap;html=1;fillColor=none;dashed=1;" vertex="1" parent="1">
          <mxGeometry x="770" y="160" width="170" height="610" as="geometry" />
        </mxCell>
        <mxCell id="Be87at6GzKaMUq3B2Rep-3" value="&lt;font style=&quot;font-size: 24px;&quot;&gt;Consume&lt;/font&gt;" style="rounded=0;whiteSpace=wrap;html=1;fillColor=default;strokeColor=none;" vertex="1" parent="1">
          <mxGeometry x="800" y="147" width="110" height="25" as="geometry" />
        </mxCell>
        <mxCell id="Be87at6GzKaMUq3B2Rep-7" value="&lt;font style=&quot;font-size: 20px;&quot;&gt;Bronze Layer&lt;/font&gt;" style="rounded=0;whiteSpace=wrap;html=1;fillColor=#ffe6cc;strokeColor=#d79b00;" vertex="1" parent="1">
          <mxGeometry x="80" y="210" width="160" height="30" as="geometry" />
        </mxCell>
        <mxCell id="Be87at6GzKaMUq3B2Rep-8" value="" style="rounded=0;whiteSpace=wrap;html=1;fillColor=none;strokeColor=#d79b00;" vertex="1" parent="1">
          <mxGeometry x="80" y="250" width="160" height="510" as="geometry" />
        </mxCell>
        <mxCell id="Be87at6GzKaMUq3B2Rep-10" value="" style="rounded=0;whiteSpace=wrap;html=1;fillColor=none;strokeColor=#666666;fontColor=#333333;" vertex="1" parent="1">
          <mxGeometry x="310" y="250" width="160" height="510" as="geometry" />
        </mxCell>
        <mxCell id="Be87at6GzKaMUq3B2Rep-11" value="&lt;font style=&quot;font-size: 20px;&quot;&gt;Silver Layer&lt;/font&gt;" style="rounded=0;whiteSpace=wrap;html=1;fillColor=#f5f5f5;strokeColor=#666666;fontColor=#333333;" vertex="1" parent="1">
          <mxGeometry x="310" y="210" width="160" height="30" as="geometry" />
        </mxCell>
        <mxCell id="Be87at6GzKaMUq3B2Rep-12" value="" style="rounded=0;whiteSpace=wrap;html=1;fillColor=none;strokeColor=#d6b656;" vertex="1" parent="1">
          <mxGeometry x="530" y="250" width="160" height="510" as="geometry" />
        </mxCell>
        <mxCell id="Be87at6GzKaMUq3B2Rep-13" value="&lt;font style=&quot;font-size: 20px;&quot;&gt;Gold&lt;/font&gt;&lt;span style=&quot;font-size: 20px; background-color: transparent; color: light-dark(rgb(0, 0, 0), rgb(255, 255, 255));&quot;&gt;&amp;nbsp;Layer&lt;/span&gt;" style="rounded=0;whiteSpace=wrap;html=1;fillColor=#fff2cc;strokeColor=#d6b656;" vertex="1" parent="1">
          <mxGeometry x="530" y="210" width="160" height="30" as="geometry" />
        </mxCell>
        <mxCell id="Be87at6GzKaMUq3B2Rep-14" value="&lt;b&gt;CRM&lt;/b&gt;" style="image;aspect=fixed;html=1;points=[];align=center;fontSize=12;image=img/lib/azure2/general/Folder_Blank.svg;" vertex="1" parent="1">
          <mxGeometry x="-99.5" y="292" width="69" height="56.00000000000001" as="geometry" />
        </mxCell>
        <mxCell id="Be87at6GzKaMUq3B2Rep-17" value="" style="image;aspect=fixed;html=1;points=[];align=center;fontSize=12;image=img/lib/azure2/general/File.svg;" vertex="1" parent="1">
          <mxGeometry x="-42.47" y="320" width="32.47" height="40" as="geometry" />
        </mxCell>
        <mxCell id="Be87at6GzKaMUq3B2Rep-18" value="&lt;b&gt;ERP&lt;/b&gt;" style="image;aspect=fixed;html=1;points=[];align=center;fontSize=12;image=img/lib/azure2/general/Folder_Blank.svg;" vertex="1" parent="1">
          <mxGeometry x="-99.5" y="427" width="69" height="56.00000000000001" as="geometry" />
        </mxCell>
        <mxCell id="Be87at6GzKaMUq3B2Rep-19" value="" style="image;aspect=fixed;html=1;points=[];align=center;fontSize=12;image=img/lib/azure2/general/File.svg;" vertex="1" parent="1">
          <mxGeometry x="-42.47" y="450" width="32.47" height="40" as="geometry" />
        </mxCell>
        <mxCell id="Be87at6GzKaMUq3B2Rep-22" value="" style="endArrow=none;html=1;rounded=0;" edge="1" parent="1">
          <mxGeometry width="50" height="50" relative="1" as="geometry">
            <mxPoint x="-4" y="560" as="sourcePoint" />
            <mxPoint x="-124" y="560" as="targetPoint" />
            <Array as="points" />
          </mxGeometry>
        </mxCell>
        <mxCell id="Be87at6GzKaMUq3B2Rep-23" value="&lt;b&gt;Object Type&lt;/b&gt;: CSV Files&lt;div&gt;&lt;b&gt;Interface:&lt;/b&gt; Files in Folder&lt;/div&gt;" style="text;html=1;align=center;verticalAlign=middle;whiteSpace=wrap;rounded=0;" vertex="1" parent="1">
          <mxGeometry x="-135.25" y="580" width="140.5" height="30" as="geometry" />
        </mxCell>
        <mxCell id="Be87at6GzKaMUq3B2Rep-25" value="" style="html=1;verticalLabelPosition=bottom;align=center;labelBackgroundColor=#ffffff;verticalAlign=top;strokeWidth=2;strokeColor=#D79B00;shadow=0;dashed=0;shape=mxgraph.ios7.icons.data;fillColor=#ffe6cc;" vertex="1" parent="1">
          <mxGeometry x="134.5" y="360" width="51" height="60" as="geometry" />
        </mxCell>
        <mxCell id="Be87at6GzKaMUq3B2Rep-26" value="" style="shape=singleArrow;whiteSpace=wrap;html=1;fillColor=#dae8fc;strokeColor=#6c8ebf;" vertex="1" parent="1">
          <mxGeometry x="-10" y="360" width="120" height="60" as="geometry" />
        </mxCell>
        <mxCell id="Be87at6GzKaMUq3B2Rep-30" value="" style="html=1;verticalLabelPosition=bottom;align=center;labelBackgroundColor=#ffffff;verticalAlign=top;strokeWidth=2;strokeColor=#666666;shadow=0;dashed=0;shape=mxgraph.ios7.icons.data;fillColor=#f5f5f5;fontColor=#333333;" vertex="1" parent="1">
          <mxGeometry x="364.5" y="366.5" width="51" height="60" as="geometry" />
        </mxCell>
        <mxCell id="Be87at6GzKaMUq3B2Rep-31" value="" style="html=1;verticalLabelPosition=bottom;align=center;labelBackgroundColor=#ffffff;verticalAlign=top;strokeWidth=2;strokeColor=#d6b656;shadow=0;dashed=0;shape=mxgraph.ios7.icons.data;fillColor=#fff2cc;" vertex="1" parent="1">
          <mxGeometry x="584.5" y="366.5" width="51" height="60" as="geometry" />
        </mxCell>
        <mxCell id="Be87at6GzKaMUq3B2Rep-33" value="" style="shape=singleArrow;whiteSpace=wrap;html=1;fillColor=#dae8fc;strokeColor=#6c8ebf;" vertex="1" parent="1">
          <mxGeometry x="210" y="360" width="120" height="60" as="geometry" />
        </mxCell>
        <mxCell id="Be87at6GzKaMUq3B2Rep-34" value="" style="shape=singleArrow;whiteSpace=wrap;html=1;fillColor=#dae8fc;strokeColor=#6c8ebf;" vertex="1" parent="1">
          <mxGeometry x="440" y="366.5" width="120" height="60" as="geometry" />
        </mxCell>
        <mxCell id="Be87at6GzKaMUq3B2Rep-35" value="" style="shape=singleArrow;whiteSpace=wrap;html=1;fillColor=#dae8fc;strokeColor=#6c8ebf;" vertex="1" parent="1">
          <mxGeometry x="670" y="366.5" width="120" height="60" as="geometry" />
        </mxCell>
        <mxCell id="Be87at6GzKaMUq3B2Rep-36" value="&lt;font style=&quot;font-size: 14px;&quot;&gt;Raw Data&lt;/font&gt;" style="text;html=1;align=center;verticalAlign=middle;whiteSpace=wrap;rounded=0;" vertex="1" parent="1">
          <mxGeometry x="110" y="427" width="100" height="30" as="geometry" />
        </mxCell>
        <mxCell id="Be87at6GzKaMUq3B2Rep-37" value="&lt;font style=&quot;font-size: 14px;&quot;&gt;Clean, Standardized Data&lt;/font&gt;" style="text;html=1;align=center;verticalAlign=middle;whiteSpace=wrap;rounded=0;" vertex="1" parent="1">
          <mxGeometry x="311" y="440" width="160" height="30" as="geometry" />
        </mxCell>
        <mxCell id="Be87at6GzKaMUq3B2Rep-38" value="&lt;font style=&quot;font-size: 14px;&quot;&gt;Business-Ready Data&lt;/font&gt;" style="text;html=1;align=center;verticalAlign=middle;whiteSpace=wrap;rounded=0;" vertex="1" parent="1">
          <mxGeometry x="530" y="430" width="160" height="30" as="geometry" />
        </mxCell>
        <mxCell id="Be87at6GzKaMUq3B2Rep-39" value="" style="endArrow=none;html=1;rounded=0;fillColor=#ffe6cc;strokeColor=#d79b00;" edge="1" parent="1">
          <mxGeometry width="50" height="50" relative="1" as="geometry">
            <mxPoint x="220" y="480" as="sourcePoint" />
            <mxPoint x="100" y="480" as="targetPoint" />
            <Array as="points" />
          </mxGeometry>
        </mxCell>
        <mxCell id="Be87at6GzKaMUq3B2Rep-40" value="" style="endArrow=none;html=1;rounded=0;fillColor=#f5f5f5;strokeColor=#666666;" edge="1" parent="1">
          <mxGeometry width="50" height="50" relative="1" as="geometry">
            <mxPoint x="451" y="480" as="sourcePoint" />
            <mxPoint x="331" y="480" as="targetPoint" />
            <Array as="points" />
          </mxGeometry>
        </mxCell>
        <mxCell id="Be87at6GzKaMUq3B2Rep-41" value="" style="endArrow=none;html=1;rounded=0;fillColor=#fff2cc;strokeColor=#d6b656;" edge="1" parent="1">
          <mxGeometry width="50" height="50" relative="1" as="geometry">
            <mxPoint x="670" y="480" as="sourcePoint" />
            <mxPoint x="550" y="480" as="targetPoint" />
            <Array as="points" />
          </mxGeometry>
        </mxCell>
        <mxCell id="Be87at6GzKaMUq3B2Rep-42" value="&lt;font style=&quot;font-size: 14px;&quot;&gt;&lt;b&gt;Object Type: &lt;/b&gt;Tables&lt;/font&gt;" style="text;html=1;align=center;verticalAlign=middle;whiteSpace=wrap;rounded=0;" vertex="1" parent="1">
          <mxGeometry x="80" y="490" width="160" height="30" as="geometry" />
        </mxCell>
        <mxCell id="Be87at6GzKaMUq3B2Rep-43" value="&lt;b style=&quot;&quot;&gt;&lt;font style=&quot;font-size: 14px;&quot;&gt;Load:&amp;nbsp;&lt;/font&gt;&lt;/b&gt;&lt;div&gt;&lt;font style=&quot;font-size: 14px;&quot;&gt;- Batch Processing&amp;nbsp;&lt;/font&gt;&lt;/div&gt;&lt;div&gt;&lt;font style=&quot;font-size: 14px;&quot;&gt;- Full Load&lt;/font&gt;&lt;/div&gt;&lt;div&gt;&lt;font style=&quot;font-size: 14px;&quot;&gt;- Truncate &amp;amp; Insert&lt;/font&gt;&lt;/div&gt;" style="text;html=1;align=left;verticalAlign=middle;whiteSpace=wrap;rounded=0;labelPosition=center;verticalLabelPosition=middle;" vertex="1" parent="1">
          <mxGeometry x="96" y="530" width="164" height="50" as="geometry" />
        </mxCell>
        <mxCell id="Be87at6GzKaMUq3B2Rep-44" value="&lt;span style=&quot;font-size: 14px;&quot;&gt;&lt;b&gt;No Transformations&lt;/b&gt;&lt;/span&gt;" style="text;html=1;align=left;verticalAlign=middle;whiteSpace=wrap;rounded=0;labelPosition=center;verticalLabelPosition=middle;" vertex="1" parent="1">
          <mxGeometry x="90" y="580" width="164" height="50" as="geometry" />
        </mxCell>
        <mxCell id="Be87at6GzKaMUq3B2Rep-45" value="&lt;span style=&quot;font-size: 14px;&quot;&gt;&lt;b&gt;Data Model: &lt;/b&gt;None(as-is)&lt;/span&gt;" style="text;html=1;align=center;verticalAlign=middle;whiteSpace=wrap;rounded=0;labelPosition=center;verticalLabelPosition=middle;" vertex="1" parent="1">
          <mxGeometry x="90" y="610" width="140" height="50" as="geometry" />
        </mxCell>
        <mxCell id="Be87at6GzKaMUq3B2Rep-46" value="&lt;font style=&quot;font-size: 14px;&quot;&gt;&lt;b&gt;Object Type: &lt;/b&gt;Tables&lt;/font&gt;" style="text;html=1;align=center;verticalAlign=middle;whiteSpace=wrap;rounded=0;" vertex="1" parent="1">
          <mxGeometry x="311" y="490" width="160" height="30" as="geometry" />
        </mxCell>
        <mxCell id="Be87at6GzKaMUq3B2Rep-47" value="&lt;b style=&quot;&quot;&gt;&lt;font style=&quot;font-size: 14px;&quot;&gt;Load:&amp;nbsp;&lt;/font&gt;&lt;/b&gt;&lt;div&gt;&lt;font style=&quot;font-size: 14px;&quot;&gt;- Batch Processing&amp;nbsp;&lt;/font&gt;&lt;/div&gt;&lt;div&gt;&lt;font style=&quot;font-size: 14px;&quot;&gt;- Full Load&lt;/font&gt;&lt;/div&gt;&lt;div&gt;&lt;font style=&quot;font-size: 14px;&quot;&gt;- Truncate &amp;amp; Insert&lt;/font&gt;&lt;/div&gt;" style="text;html=1;align=left;verticalAlign=middle;whiteSpace=wrap;rounded=0;labelPosition=center;verticalLabelPosition=middle;" vertex="1" parent="1">
          <mxGeometry x="327" y="529" width="164" height="50" as="geometry" />
        </mxCell>
        <mxCell id="Be87at6GzKaMUq3B2Rep-48" value="&lt;span style=&quot;font-size: 14px;&quot;&gt;&lt;b&gt;Transformations:&lt;/b&gt;&lt;/span&gt;&lt;div&gt;&lt;span style=&quot;font-size: 14px;&quot;&gt;- Data Cleansing&lt;/span&gt;&lt;/div&gt;&lt;div&gt;&lt;span style=&quot;font-size: 14px;&quot;&gt;- Data Standardisation&lt;br&gt;- Data Normalization&lt;/span&gt;&lt;/div&gt;&lt;div&gt;&lt;span style=&quot;font-size: 14px;&quot;&gt;- Derived Columns&lt;/span&gt;&lt;/div&gt;&lt;div&gt;&lt;span style=&quot;font-size: 14px;&quot;&gt;- Data Enrichment&lt;/span&gt;&lt;/div&gt;" style="text;html=1;align=left;verticalAlign=middle;whiteSpace=wrap;rounded=0;labelPosition=center;verticalLabelPosition=middle;" vertex="1" parent="1">
          <mxGeometry x="327" y="620" width="164" height="50" as="geometry" />
        </mxCell>
        <mxCell id="Be87at6GzKaMUq3B2Rep-49" value="&lt;span style=&quot;font-size: 14px;&quot;&gt;&lt;b&gt;Data Model: &lt;/b&gt;None(as-is)&lt;/span&gt;" style="text;html=1;align=center;verticalAlign=middle;whiteSpace=wrap;rounded=0;labelPosition=center;verticalLabelPosition=middle;" vertex="1" parent="1">
          <mxGeometry x="320" y="700" width="140" height="50" as="geometry" />
        </mxCell>
        <mxCell id="Be87at6GzKaMUq3B2Rep-50" value="&lt;font style=&quot;font-size: 14px;&quot;&gt;&lt;b&gt;Object Type: &lt;/b&gt;Views&lt;/font&gt;" style="text;html=1;align=center;verticalAlign=middle;whiteSpace=wrap;rounded=0;" vertex="1" parent="1">
          <mxGeometry x="530" y="490" width="160" height="30" as="geometry" />
        </mxCell>
        <mxCell id="Be87at6GzKaMUq3B2Rep-51" value="&lt;span style=&quot;font-size: 14px;&quot;&gt;&lt;b&gt;No Load&lt;/b&gt;&lt;/span&gt;" style="text;html=1;align=left;verticalAlign=middle;whiteSpace=wrap;rounded=0;labelPosition=center;verticalLabelPosition=middle;" vertex="1" parent="1">
          <mxGeometry x="547" y="508" width="164" height="50" as="geometry" />
        </mxCell>
        <mxCell id="Be87at6GzKaMUq3B2Rep-52" value="&lt;span style=&quot;font-size: 14px;&quot;&gt;&lt;b&gt;Transformations:&lt;/b&gt;&lt;/span&gt;&lt;div&gt;&lt;span style=&quot;font-size: 14px;&quot;&gt;- Data Integrations&lt;/span&gt;&lt;/div&gt;&lt;div&gt;&lt;span style=&quot;font-size: 14px;&quot;&gt;- Aggregations&lt;/span&gt;&lt;/div&gt;&lt;div&gt;&lt;span style=&quot;font-size: 14px;&quot;&gt;- Business Logics&lt;/span&gt;&lt;/div&gt;" style="text;html=1;align=left;verticalAlign=middle;whiteSpace=wrap;rounded=0;labelPosition=center;verticalLabelPosition=middle;" vertex="1" parent="1">
          <mxGeometry x="547" y="570" width="164" height="50" as="geometry" />
        </mxCell>
        <mxCell id="Be87at6GzKaMUq3B2Rep-53" value="&lt;span style=&quot;font-size: 14px;&quot;&gt;&lt;b&gt;Data Model:&amp;nbsp;&lt;/b&gt;&lt;/span&gt;&lt;div&gt;&lt;span style=&quot;font-size: 14px;&quot;&gt;- Star Schema&lt;/span&gt;&lt;/div&gt;&lt;div&gt;&lt;span style=&quot;font-size: 14px;&quot;&gt;- Flat Table&lt;/span&gt;&lt;/div&gt;&lt;div&gt;&lt;span style=&quot;font-size: 14px;&quot;&gt;- Aggregated Table&lt;/span&gt;&lt;/div&gt;" style="text;html=1;align=left;verticalAlign=middle;whiteSpace=wrap;rounded=0;labelPosition=center;verticalLabelPosition=middle;" vertex="1" parent="1">
          <mxGeometry x="547" y="650" width="140" height="50" as="geometry" />
        </mxCell>
        <mxCell id="Be87at6GzKaMUq3B2Rep-54" value="" style="image;aspect=fixed;html=1;points=[];align=center;fontSize=12;image=img/lib/azure2/analytics/Power_BI_Embedded.svg;" vertex="1" parent="1">
          <mxGeometry x="830" y="313" width="40.5" height="54" as="geometry" />
        </mxCell>
        <mxCell id="Be87at6GzKaMUq3B2Rep-57" value="&lt;span style=&quot;font-size: 14px;&quot;&gt;BI &amp;amp; Reporting&lt;/span&gt;" style="text;html=1;align=center;verticalAlign=middle;whiteSpace=wrap;rounded=0;" vertex="1" parent="1">
          <mxGeometry x="775" y="367" width="160" height="30" as="geometry" />
        </mxCell>
        <mxCell id="Be87at6GzKaMUq3B2Rep-58" value="" style="html=1;verticalLabelPosition=bottom;align=center;labelBackgroundColor=#ffffff;verticalAlign=top;strokeWidth=2;strokeColor=#0080F0;shadow=0;dashed=0;shape=mxgraph.ios7.icons.looking_glass;" vertex="1" parent="1">
          <mxGeometry x="835.25" y="440" width="30" height="30" as="geometry" />
        </mxCell>
        <mxCell id="Be87at6GzKaMUq3B2Rep-59" value="&lt;span style=&quot;font-size: 14px;&quot;&gt;Ad-Hoc SQL Queries&lt;/span&gt;" style="text;html=1;align=center;verticalAlign=middle;whiteSpace=wrap;rounded=0;" vertex="1" parent="1">
          <mxGeometry x="775" y="478" width="160" height="30" as="geometry" />
        </mxCell>
        <mxCell id="Be87at6GzKaMUq3B2Rep-60" value="" style="sketch=0;outlineConnect=0;fontColor=#232F3E;gradientColor=none;fillColor=#8C4FFF;strokeColor=none;dashed=0;verticalLabelPosition=bottom;verticalAlign=top;align=center;html=1;fontSize=12;fontStyle=0;aspect=fixed;pointerEvents=1;shape=mxgraph.aws4.mesh;" vertex="1" parent="1">
          <mxGeometry x="826.13" y="553" width="57.74" height="57" as="geometry" />
        </mxCell>
        <mxCell id="Be87at6GzKaMUq3B2Rep-61" value="&lt;span style=&quot;font-size: 14px;&quot;&gt;Machine Learning&lt;/span&gt;" style="text;html=1;align=center;verticalAlign=middle;whiteSpace=wrap;rounded=0;" vertex="1" parent="1">
          <mxGeometry x="775" y="620" width="160" height="30" as="geometry" />
        </mxCell>
        <mxCell id="Be87at6GzKaMUq3B2Rep-62" value="&lt;b style=&quot;&quot;&gt;&lt;u style=&quot;&quot;&gt;&lt;font style=&quot;font-size: 24px;&quot;&gt;Data Architecture&lt;/font&gt;&lt;/u&gt;&lt;/b&gt;" style="rounded=0;whiteSpace=wrap;html=1;fillColor=default;strokeColor=none;" vertex="1" parent="1">
          <mxGeometry x="265" y="60" width="250" height="25" as="geometry" />
        </mxCell>
      </root>
    </mxGraphModel>
  </diagram>
</mxfile>
